<?xml version="1.0" encoding="UTF-8"?>
<svg height="389" width="712" xmlns="http://www.w3.org/2000/svg"><g stroke-width="2" stroke="black" stroke-linecap="round" font-family="Verdana" font-size="10"><rect x="420" width="100" height="360" style="fill:rgb(230,230,230); stroke-width:0"></rect><rect x="220" width="100" height="360" style="fill:rgb(230,230,230); stroke-width:0"></rect><rect x="20" width="100" height="360" style="fill:rgb(230,230,230); stroke-width:0"></rect><line x1="10" y1="366" x2="520" y2="366"></line><line x1="520" y1="366" x2="520" y2="372"></line><text x="515" y="383" stroke-width="0">0</text><line x1="420" y1="366" x2="420" y2="372"></line><text x="415" y="383" stroke-width="0">20</text><line x1="320" y1="366" x2="320" y2="372"></line><text x="315" y="383" stroke-width="0">40</text><line x1="220" y1="366" x2="220" y2="372"></line><text x="215" y="383" stroke-width="0">60</text><line x1="120" y1="366" x2="120" y2="372"></line><text x="115" y="383" stroke-width="0">80</text><line x1="20" y1="366" x2="20" y2="372"></line><text x="15" y="383" stroke-width="0">100</text><line x1="5" y1="130" x2="10" y2="130"></line><line x1="10" y1="57" x2="10" y2="203"></line><line x1="10" y1="57" x2="150" y2="57"></line><line x1="150" y1="16" x2="150" y2="98"></line><line x1="150" y1="16" x2="175" y2="16"></line><line x1="175" y1="5" x2="175" y2="28"></line><line x1="175" y1="5" x2="190" y2="5"></line><line x1="175" y1="28" x2="347" y2="28"></line><line x1="347" y1="17" x2="347" y2="39"></line><line x1="347" y1="17" x2="520" y2="17"></line><line x1="347" y1="39" x2="387" y2="39"></line><line x1="387" y1="29" x2="387" y2="50"></line><line x1="387" y1="29" x2="520" y2="29"></line><line x1="387" y1="50" x2="401" y2="50"></line><line x1="401" y1="41" x2="401" y2="59"></line><line x1="401" y1="41" x2="520" y2="41"></line><line x1="401" y1="59" x2="415" y2="59"></line><line x1="415" y1="53" x2="415" y2="65"></line><line x1="415" y1="53" x2="520" y2="53"></line><line x1="415" y1="65" x2="520" y2="65"></line><line x1="150" y1="98" x2="244" y2="98"></line><line x1="244" y1="77" x2="244" y2="119"></line><line x1="244" y1="77" x2="520" y2="77"></line><line x1="244" y1="119" x2="251" y2="119"></line><line x1="251" y1="98" x2="251" y2="140"></line><line x1="251" y1="98" x2="354" y2="98"></line><line x1="354" y1="89" x2="354" y2="107"></line><line x1="354" y1="89" x2="520" y2="89"></line><line x1="354" y1="107" x2="382" y2="107"></line><line x1="382" y1="101" x2="382" y2="113"></line><line x1="382" y1="101" x2="520" y2="101"></line><line x1="382" y1="113" x2="520" y2="113"></line><line x1="251" y1="140" x2="265" y2="140"></line><line x1="265" y1="125" x2="265" y2="155"></line><line x1="265" y1="125" x2="520" y2="125"></line><line x1="265" y1="155" x2="303" y2="155"></line><line x1="303" y1="143" x2="303" y2="167"></line><line x1="303" y1="143" x2="361" y2="143"></line><line x1="361" y1="137" x2="361" y2="149"></line><line x1="361" y1="137" x2="520" y2="137"></line><line x1="361" y1="149" x2="520" y2="149"></line><line x1="303" y1="167" x2="437" y2="167"></line><line x1="437" y1="161" x2="437" y2="173"></line><line x1="437" y1="161" x2="520" y2="161"></line><line x1="437" y1="173" x2="520" y2="173"></line><line x1="10" y1="203" x2="362" y2="203"></line><line x1="362" y1="185" x2="362" y2="221"></line><line x1="362" y1="185" x2="520" y2="185"></line><line x1="362" y1="221" x2="415" y2="221"></line><line x1="415" y1="197" x2="415" y2="245"></line><line x1="415" y1="197" x2="520" y2="197"></line><line x1="415" y1="245" x2="423" y2="245"></line><line x1="423" y1="215" x2="423" y2="276"></line><line x1="423" y1="215" x2="439" y2="215"></line><line x1="439" y1="209" x2="439" y2="221"></line><line x1="439" y1="209" x2="520" y2="209"></line><line x1="439" y1="221" x2="520" y2="221"></line><line x1="423" y1="276" x2="426" y2="276"></line><line x1="426" y1="251" x2="426" y2="301"></line><line x1="426" y1="251" x2="440" y2="251"></line><line x1="440" y1="239" x2="440" y2="263"></line><line x1="440" y1="239" x2="446" y2="239"></line><line x1="446" y1="233" x2="446" y2="245"></line><line x1="446" y1="233" x2="520" y2="233"></line><line x1="446" y1="245" x2="520" y2="245"></line><line x1="440" y1="263" x2="452" y2="263"></line><line x1="452" y1="257" x2="452" y2="269"></line><line x1="452" y1="257" x2="520" y2="257"></line><line x1="452" y1="269" x2="520" y2="269"></line><line x1="426" y1="301" x2="429" y2="301"></line><line x1="429" y1="287" x2="429" y2="316"></line><line x1="429" y1="287" x2="434" y2="287"></line><line x1="434" y1="281" x2="434" y2="293"></line><line x1="434" y1="281" x2="520" y2="281"></line><line x1="434" y1="293" x2="520" y2="293"></line><line x1="429" y1="316" x2="435" y2="316"></line><line x1="435" y1="305" x2="435" y2="327"></line><line x1="435" y1="305" x2="520" y2="305"></line><line x1="435" y1="327" x2="453" y2="327"></line><line x1="453" y1="317" x2="453" y2="338"></line><line x1="453" y1="317" x2="520" y2="317"></line><line x1="453" y1="338" x2="495" y2="338"></line><line x1="495" y1="329" x2="495" y2="347"></line><line x1="495" y1="329" x2="520" y2="329"></line><line x1="495" y1="347" x2="503" y2="347"></line><line x1="503" y1="341" x2="503" y2="353"></line><line x1="503" y1="341" x2="520" y2="341"></line><line x1="503" y1="353" x2="520" y2="353"></line><circle cx="10" cy="130" r="7" fill="white" stroke="black" stroke-width="1"></circle><text x="5" y="132" stroke-width="0" font-size="6">0</text><circle cx="150" cy="57" r="7" fill="white" stroke="black" stroke-width="1"></circle><text x="145" y="59" stroke-width="0" font-size="6">1</text><circle cx="175" cy="16" r="7" fill="white" stroke="black" stroke-width="1"></circle><text x="170" y="18" stroke-width="0" font-size="6">2</text><text x="200" y="10" stroke-width="0" font-style="italic">Konkasaurus mahalana</text><circle cx="190" cy="5" r="7" fill="white" stroke="black" stroke-width="1"></circle><text x="185" y="7" stroke-width="0" font-size="6">3</text><circle cx="347" cy="28" r="7" fill="white" stroke="black" stroke-width="1"></circle><text x="342" y="30" stroke-width="0" font-size="6">4</text><text x="530" y="22" stroke-width="0" font-style="italic">Tracheloptychus madagascariensis</text><circle cx="520" cy="17" r="7" fill="white" stroke="black" stroke-width="1"></circle><text x="515" y="19" stroke-width="0" font-size="6">5</text><circle cx="387" cy="39" r="7" fill="white" stroke="black" stroke-width="1"></circle><text x="382" y="41" stroke-width="0" font-size="6">6</text><text x="530" y="34" stroke-width="0" font-style="italic">Zonosaurus aeneus</text><circle cx="520" cy="29" r="7" fill="white" stroke="black" stroke-width="1"></circle><text x="515" y="31" stroke-width="0" font-size="6">7</text><circle cx="401" cy="50" r="7" fill="white" stroke="black" stroke-width="1"></circle><text x="396" y="52" stroke-width="0" font-size="6">8</text><text x="530" y="46" stroke-width="0" font-style="italic">Zonosaurus trilineatus</text><circle cx="520" cy="41" r="7" fill="white" stroke="black" stroke-width="1"></circle><text x="515" y="43" stroke-width="0" font-size="6">9</text><circle cx="415" cy="59" r="7" fill="white" stroke="black" stroke-width="1"></circle><text x="410" y="61" stroke-width="0" font-size="6">10</text><text x="530" y="58" stroke-width="0" font-style="italic">Zonosaurus karsteni</text><circle cx="520" cy="53" r="7" fill="white" stroke="black" stroke-width="1"></circle><text x="515" y="55" stroke-width="0" font-size="6">11</text><text x="530" y="70" stroke-width="0" font-style="italic">Zonosaurus ornatus</text><circle cx="520" cy="65" r="7" fill="white" stroke="black" stroke-width="1"></circle><text x="515" y="67" stroke-width="0" font-size="6">12</text><circle cx="244" cy="98" r="7" fill="white" stroke="black" stroke-width="1"></circle><text x="239" y="100" stroke-width="0" font-size="6">13</text><text x="530" y="82" stroke-width="0" font-style="italic">Broadleysaurus major</text><circle cx="520" cy="77" r="7" fill="white" stroke="black" stroke-width="1"></circle><text x="515" y="79" stroke-width="0" font-size="6">14</text><circle cx="251" cy="119" r="7" fill="white" stroke="black" stroke-width="1"></circle><text x="246" y="121" stroke-width="0" font-size="6">15</text><circle cx="354" cy="98" r="7" fill="white" stroke="black" stroke-width="1"></circle><text x="349" y="100" stroke-width="0" font-size="6">16</text><text x="530" y="94" stroke-width="0" font-style="italic">Tetradactylus seps</text><circle cx="520" cy="89" r="7" fill="white" stroke="black" stroke-width="1"></circle><text x="515" y="91" stroke-width="0" font-size="6">17</text><circle cx="382" cy="107" r="7" fill="white" stroke="black" stroke-width="1"></circle><text x="377" y="109" stroke-width="0" font-size="6">18</text><text x="530" y="106" stroke-width="0" font-style="italic">Tetradactylus africanus</text><circle cx="520" cy="101" r="7" fill="white" stroke="black" stroke-width="1"></circle><text x="515" y="103" stroke-width="0" font-size="6">19</text><text x="530" y="118" stroke-width="0" font-style="italic">Tetradactylus tetradactylus</text><circle cx="520" cy="113" r="7" fill="white" stroke="black" stroke-width="1"></circle><text x="515" y="115" stroke-width="0" font-size="6">20</text><circle cx="265" cy="140" r="7" fill="white" stroke="black" stroke-width="1"></circle><text x="260" y="142" stroke-width="0" font-size="6">21</text><text x="530" y="130" stroke-width="0" font-style="italic">Matobosaurus validus</text><circle cx="520" cy="125" r="7" fill="white" stroke="black" stroke-width="1"></circle><text x="515" y="127" stroke-width="0" font-size="6">22</text><circle cx="303" cy="155" r="7" fill="white" stroke="black" stroke-width="1"></circle><text x="298" y="157" stroke-width="0" font-size="6">23</text><circle cx="361" cy="143" r="7" fill="white" stroke="black" stroke-width="1"></circle><text x="356" y="145" stroke-width="0" font-size="6">24</text><text x="530" y="142" stroke-width="0" font-style="italic">Gerrhosaurus skoogi</text><circle cx="520" cy="137" r="7" fill="white" stroke="black" stroke-width="1"></circle><text x="515" y="139" stroke-width="0" font-size="6">25</text><text x="530" y="154" stroke-width="0" font-style="italic">Gerrhosaurus typicus</text><circle cx="520" cy="149" r="7" fill="white" stroke="black" stroke-width="1"></circle><text x="515" y="151" stroke-width="0" font-size="6">26</text><circle cx="437" cy="167" r="7" fill="white" stroke="black" stroke-width="1"></circle><text x="432" y="169" stroke-width="0" font-size="6">27</text><text x="530" y="166" stroke-width="0" font-style="italic">Gerrhosaurus multilineatus</text><circle cx="520" cy="161" r="7" fill="white" stroke="black" stroke-width="1"></circle><text x="515" y="163" stroke-width="0" font-size="6">28</text><text x="530" y="178" stroke-width="0" font-style="italic">Gerrhosaurus nigrolineatus</text><circle cx="520" cy="173" r="7" fill="white" stroke="black" stroke-width="1"></circle><text x="515" y="175" stroke-width="0" font-size="6">29</text><circle cx="362" cy="203" r="7" fill="white" stroke="black" stroke-width="1"></circle><text x="357" y="205" stroke-width="0" font-size="6">30</text><text x="530" y="190" stroke-width="0" font-style="italic">Platysaurus mitchelli</text><circle cx="520" cy="185" r="7" fill="white" stroke="black" stroke-width="1"></circle><text x="515" y="187" stroke-width="0" font-size="6">31</text><circle cx="415" cy="221" r="7" fill="white" stroke="black" stroke-width="1"></circle><text x="410" y="223" stroke-width="0" font-size="6">32</text><text x="530" y="202" stroke-width="0" font-style="italic">Ouroborus cataphractus</text><circle cx="520" cy="197" r="7" fill="white" stroke="black" stroke-width="1"></circle><text x="515" y="199" stroke-width="0" font-size="6">33</text><circle cx="423" cy="245" r="7" fill="white" stroke="black" stroke-width="1"></circle><text x="418" y="247" stroke-width="0" font-size="6">34</text><circle cx="439" cy="215" r="7" fill="white" stroke="black" stroke-width="1"></circle><text x="434" y="217" stroke-width="0" font-size="6">35</text><text x="530" y="214" stroke-width="0" font-style="italic">Smaug giganteus</text><circle cx="520" cy="209" r="7" fill="white" stroke="black" stroke-width="1"></circle><text x="515" y="211" stroke-width="0" font-size="6">36</text><text x="530" y="226" stroke-width="0" font-style="italic">Smaug warreni</text><circle cx="520" cy="221" r="7" fill="white" stroke="black" stroke-width="1"></circle><text x="515" y="223" stroke-width="0" font-size="6">37</text><circle cx="426" cy="276" r="7" fill="white" stroke="black" stroke-width="1"></circle><text x="421" y="278" stroke-width="0" font-size="6">38</text><circle cx="440" cy="251" r="7" fill="white" stroke="black" stroke-width="1"></circle><text x="435" y="253" stroke-width="0" font-size="6">39</text><circle cx="446" cy="239" r="7" fill="white" stroke="black" stroke-width="1"></circle><text x="441" y="241" stroke-width="0" font-size="6">40</text><text x="530" y="238" stroke-width="0" font-style="italic">Hemicordylus capensis</text><circle cx="520" cy="233" r="7" fill="white" stroke="black" stroke-width="1"></circle><text x="515" y="235" stroke-width="0" font-size="6">41</text><text x="530" y="250" stroke-width="0" font-style="italic">Ninurta coeruleopunctatus</text><circle cx="520" cy="245" r="7" fill="white" stroke="black" stroke-width="1"></circle><text x="515" y="247" stroke-width="0" font-size="6">42</text><circle cx="452" cy="263" r="7" fill="white" stroke="black" stroke-width="1"></circle><text x="447" y="265" stroke-width="0" font-size="6">43</text><text x="530" y="262" stroke-width="0" font-style="italic">Cordylus niger</text><circle cx="520" cy="257" r="7" fill="white" stroke="black" stroke-width="1"></circle><text x="515" y="259" stroke-width="0" font-size="6">44</text><text x="530" y="274" stroke-width="0" font-style="italic">Cordylus tropidosternum</text><circle cx="520" cy="269" r="7" fill="white" stroke="black" stroke-width="1"></circle><text x="515" y="271" stroke-width="0" font-size="6">45</text><circle cx="429" cy="301" r="7" fill="white" stroke="black" stroke-width="1"></circle><text x="424" y="303" stroke-width="0" font-size="6">46</text><circle cx="434" cy="287" r="7" fill="white" stroke="black" stroke-width="1"></circle><text x="429" y="289" stroke-width="0" font-size="6">47</text><text x="530" y="286" stroke-width="0" font-style="italic">Karusasaurus polyzonus</text><circle cx="520" cy="281" r="7" fill="white" stroke="black" stroke-width="1"></circle><text x="515" y="283" stroke-width="0" font-size="6">48</text><text x="530" y="298" stroke-width="0" font-style="italic">Namazonurus campbelli</text><circle cx="520" cy="293" r="7" fill="white" stroke="black" stroke-width="1"></circle><text x="515" y="295" stroke-width="0" font-size="6">49</text><circle cx="435" cy="316" r="7" fill="white" stroke="black" stroke-width="1"></circle><text x="430" y="318" stroke-width="0" font-size="6">50</text><text x="530" y="310" stroke-width="0" font-style="italic">Chamaesaura aenea</text><circle cx="520" cy="305" r="7" fill="white" stroke="black" stroke-width="1"></circle><text x="515" y="307" stroke-width="0" font-size="6">51</text><circle cx="453" cy="327" r="7" fill="white" stroke="black" stroke-width="1"></circle><text x="448" y="329" stroke-width="0" font-size="6">52</text><text x="530" y="322" stroke-width="0" font-style="italic">Pseudocordylus langi</text><circle cx="520" cy="317" r="7" fill="white" stroke="black" stroke-width="1"></circle><text x="515" y="319" stroke-width="0" font-size="6">53</text><circle cx="495" cy="338" r="7" fill="white" stroke="black" stroke-width="1"></circle><text x="490" y="340" stroke-width="0" font-size="6">54</text><text x="530" y="334" stroke-width="0" font-style="italic">Pseudocordylus microlepidotus</text><circle cx="520" cy="329" r="7" fill="white" stroke="black" stroke-width="1"></circle><text x="515" y="331" stroke-width="0" font-size="6">55</text><circle cx="503" cy="347" r="7" fill="white" stroke="black" stroke-width="1"></circle><text x="498" y="349" stroke-width="0" font-size="6">56</text><text x="530" y="346" stroke-width="0" font-style="italic">Pseudocordylus melanotus</text><circle cx="520" cy="341" r="7" fill="white" stroke="black" stroke-width="1"></circle><text x="515" y="343" stroke-width="0" font-size="6">57</text><text x="530" y="358" stroke-width="0" font-style="italic">Pseudocordylus spinosus</text><circle cx="520" cy="353" r="7" fill="white" stroke="black" stroke-width="1"></circle><text x="515" y="355" stroke-width="0" font-size="6">58</text></g></svg>